<svg xmlns="http://www.w3.org/2000/svg" width="25" height="140" viewBox="0 0 25 140">
  <defs>
    <style>
      .cls-1 {
        fill: #b6c7d3;
        fill-rule: evenodd;
      }
    </style>
  </defs>
  <path id="Прямоугольник_скругл._углы_1_копия" data-name="Прямоугольник, скругл. углы 1 копия" class="cls-1" d="M1585.13,5584.4l17.88,65.72a3.564,3.564,0,0,0,4.35,2.47,3.485,3.485,0,0,0,2.51-4.28l-17.88-65.72a3.564,3.564,0,0,0-4.35-2.47A3.485,3.485,0,0,0,1585.13,5584.4Zm17.88,65.48-17.88,65.71a3.48,3.48,0,0,0,2.51,4.28,3.564,3.564,0,0,0,4.35-2.47l17.88-65.72a3.485,3.485,0,0,0-2.51-4.28A3.562,3.562,0,0,0,1603.01,5649.88Z" transform="translate(-1585 -5580)"/>
</svg>
