<svg xmlns="http://www.w3.org/2000/svg" width="25" height="140" viewBox="0 0 25 140">
  <defs>
    <style>
      .cls-1 {
        fill: #b6c7d3;
        fill-rule: evenodd;
      }
    </style>
  </defs>
  <path id="Прямоугольник_скругл._углы_1_копия" data-name="Прямоугольник, скругл. углы 1 копия" class="cls-1" d="M214.873,5584.4l-17.887,65.72a3.558,3.558,0,0,1-4.348,2.47,3.491,3.491,0,0,1-2.511-4.28l17.888-65.72a3.559,3.559,0,0,1,4.348-2.47A3.491,3.491,0,0,1,214.873,5584.4Zm-17.887,65.48,17.887,65.71a3.486,3.486,0,0,1-2.51,4.28,3.559,3.559,0,0,1-4.348-2.47l-17.888-65.72a3.492,3.492,0,0,1,2.511-4.28A3.556,3.556,0,0,1,196.986,5649.88Z" transform="translate(-190 -5580)"/>
</svg>
