<?xml version="1.0" encoding="utf-8"?>
<!-- Generator: Adobe Illustrator 21.0.2, SVG Export Plug-In . SVG Version: 6.00 Build 0)  -->
<svg version="1.1" id="Layer_1" xmlns="http://www.w3.org/2000/svg" xmlns:xlink="http://www.w3.org/1999/xlink" x="0px" y="0px"
	 viewBox="0 0 841.9 1190.6" style="enable-background:new 0 0 841.9 1190.6;" xml:space="preserve">
<style type="text/css">
	.st0{fill:#E2E9EE;}
</style>
<path class="st0" d="M425.9,337.5c-124.1,0-224.8,100.6-224.6,224.5c0.2,124.5,101,224.3,224.4,224.3C549.6,786.3,650,686,650,562
	C650,438.1,549.7,337.6,425.9,337.5z M221.2,553.9c1.9-41,13.3-76.8,37.2-110.1c0.4-0.6,3.5-5.4,7.9-2.8c0,0,13.4,7.9,20,14.7
	c10.6,10.9,17.3,23.8,19.2,39c2.2,18-2.5,34.2-13.3,48.6c-3.1,4.1-6.6,7.7-10.5,11.1c-1.3,1.2-2.7,1.7-4.5,1.7
	c-8.9,0-17.8,0-26.7,0.1c-8.6,0-17.3,0-25.9,0c-0.5,0-3.4,0-3.4,0S221.2,554.9,221.2,553.9z M309.3,714.6c0.1,7.6-7.9,9.9-11.7,6.8
	C261,691.9,237,654,226,607.6c-2.5-10.7-4-21.5-4.7-32.4c-0.1-1.1-0.1-2.2-0.1-3.4c4.2-0.1,2.3-0.1,4.2-0.1c17.3,0,34.7,0,52,0
	c6.7,0,5.2-0.7,10.2,4.1c11.6,11,18.9,24.4,21.2,40.5c0.4,2.6,0.5,5.3,0.5,7.9C309.3,649.8,309.3,697.9,309.3,714.6z M332.6,623
	c-0.1-5.2,0.2-10.5-0.5-15.8c-2-15.1-8.5-27.9-19-38.8c-2.2-2.3-4.7-4.4-7.2-6.3c1.8-2.3,1.8-2.3,1.8-2.3
	c12.4-15.2,18.9-32.6,18.8-52.3c-0.1-25.7-7.1-49.1-22.3-69.8c-8.9-12.1-20.1-21.8-33.5-28.7c-0.4-0.3-0.8-0.5-1.2-0.7
	c-0.2-0.1-0.3-0.2-0.7-0.6c35.7-35.6,82.4-58.5,134.7-65c-76,20.9-72.8,100.5-72.9,105.4c0,62.9,88.5,171.8,88.5,231.7
	c0,23.3-10.4,55.2-74.3,55.2c-12.9,0-18.8-3.2-18.8-3.2s6.6-4,6.6-10.8C332.6,708.6,332.7,657.6,332.6,623z M457.8,776.1
	c0,3.7,0,3.7-3.7,4.1c-15.2,1.8-30.4,2.3-45.6,1.1c-50.4-6.2-73.2-19.2-73.2-19.2s0.1-0.1,0.3,0.1c21.1,3.1,110.6-3.3,110.6-83.2
	c0-58-86.5-177.3-86.5-230.8c0-85.5,69.3-83.5,98-83.9c0,0,0.1,74.1,0.1,108.9C457.8,574.2,457.8,675.1,457.8,776.1z M529.6,544.7
	c0,69.2,0,138.4,0,207.6c0,2.9,0,3.3,0,3.3l-3.2,1.9c-13.1,6.8-26.7,12.2-40.8,16.2c-0.6,0.2-1.3,0.3-1.9,0.5
	c-0.4,0.1-0.7,0.2-1.4,0.3c0-134.8,0-269.9,0-404.5c2.5,0.8,1.7,0.6,2.5,0.8c14.9,4.7,29.1,11,42.6,18.9c1.7,1,2.2,2.1,2.2,4
	C529.6,445.4,529.6,494.4,529.6,544.7z M576,693.7c-6.1,7-12.7,13.5-19.7,19.6c-0.6,0.5-1.5,1.1-2.1,1.6c0-2.6,0-323.1,0-330.9
	c0.6,0,1.2,0.3,1.8,0.8c8.6,6.4,16.9,13.4,24.5,21c1,1,1.6,2.4,1.6,3.8c0.1,8.7-0.2,16.8,0,25.5c0,1.4,0.6,3.3,1.6,4.5
	c12.3,15.6,21.8,32.8,29,51.4c10.1,26.4,14.2,53.8,12.6,81.9C622.7,618.8,606.1,659,576,693.7z"/>
</svg>
