<svg xmlns="http://www.w3.org/2000/svg" viewBox="0 0 332.95 108.08"><defs><style>.cls-1{fill:#fff;}</style></defs><title>Ресурс 1</title><g id="Слой_2" data-name="Слой 2"><g id="Слой_1-2" data-name="Слой 1"><path class="cls-1" d="M169.38,43.91c0-9.9,0-19.81,0-29.71a7.9,7.9,0,0,1,8.09-8.1c7.88,0,15.77,0,23.65,0a44.9,44.9,0,0,1,16.14,2.68c11.71,4.57,19,13,21.59,25.34a45.64,45.64,0,0,1-.78,22.48c-3.53,11.88-11.51,19.37-23.25,23a53.43,53.43,0,0,1-15.47,2.11q-10.92.05-21.84,0A7.76,7.76,0,0,1,169.67,76a9.15,9.15,0,0,1-.28-2.3Q169.37,58.82,169.38,43.91Zm16,24.37.41,0c3.8,0,7.59,0,11.39,0a35.18,35.18,0,0,0,11.3-1.74c6.83-2.37,11.59-6.84,13.65-13.86a31.62,31.62,0,0,0,0-18,19.21,19.21,0,0,0-11.9-13,32.07,32.07,0,0,0-11.58-2.14c-4.26-.06-8.52,0-12.78,0-.15,0-.29,0-.45,0Z"/><path class="cls-1" d="M14.7,31.48c1.23-.3,2.39-.64,3.57-.87a29.45,29.45,0,0,1,15.87.71A21.87,21.87,0,0,1,47.8,44.61a31,31,0,0,1,1,19.76c-2.17,7.89-7.28,13.17-14.91,16.05a38.3,38.3,0,0,1-11.2,2.29,72,72,0,0,1-12-.23A31.57,31.57,0,0,1,6,81.68a7.62,7.62,0,0,1-6-7.63c0-.16,0-.31,0-.47Q0,43,0,12.46A7.08,7.08,0,0,1,5.64,5.4a7.43,7.43,0,0,1,8.4,4,7.43,7.43,0,0,1,.67,3.21q0,9.11,0,18.22Zm0,39.05c.78,0,1.5.1,2.23.12a28.44,28.44,0,0,0,7.52-.36C29.58,69.1,33,66,34.34,60.91A17.68,17.68,0,0,0,34.1,51a12,12,0,0,0-11.69-8.64,21.36,21.36,0,0,0-7.15,1.22.7.7,0,0,0-.58.79q0,12.78,0,25.56Z"/><path class="cls-1" d="M273.79,79.82c-1.2.52-2.34,1.09-3.53,1.53a28.7,28.7,0,0,1-11.78,1.42,16.85,16.85,0,0,1-9.65-3.55,14.41,14.41,0,0,1-5.53-10.53A13.17,13.17,0,0,1,251,55a35.54,35.54,0,0,1,9.84-3.2,102.29,102.29,0,0,1,11.33-1.43l.4,0c0-2.12,0-4.2-1-6.11a5.85,5.85,0,0,0-4.81-2.88,18.06,18.06,0,0,0-8.74,1.41c-1.71.64-3.43,1.24-5.19,1.73a5.78,5.78,0,0,1-4-.28,5.49,5.49,0,0,1-1.58-8.74,12.35,12.35,0,0,1,5-3.13A37.93,37.93,0,0,1,263,30a39.17,39.17,0,0,1,7.9.1A19.69,19.69,0,0,1,281,34a15.56,15.56,0,0,1,5.72,10,32.65,32.65,0,0,1,.42,5c0,8.82,0,17.63,0,26.45a7.21,7.21,0,0,1-4.63,6.78,7.51,7.51,0,0,1-8.11-1.71C274.22,80.36,274,80.08,273.79,79.82ZM272.54,60.2a44.89,44.89,0,0,0-8.75.93,11.67,11.67,0,0,0-4.76,2A4.37,4.37,0,0,0,257.39,68a4.68,4.68,0,0,0,3.4,3.32A14.06,14.06,0,0,0,272.25,70a.83.83,0,0,0,.28-.63c0-2.88,0-5.76,0-8.64Z"/><path class="cls-1" d="M107.28,49.27c0,3.92,0,7.83,0,11.75a24,24,0,0,1-2.08,10.1,18.94,18.94,0,0,1-11.3,9.93,34.83,34.83,0,0,1-12.27,1.78,33.48,33.48,0,0,1-11.9-2.07c-7-2.72-11-7.89-12.22-15.18a37.12,37.12,0,0,1-.49-6c-.06-7.42,0-14.84,0-22.25A7.15,7.15,0,0,1,63.11,30a7.24,7.24,0,0,1,8.55,7.1q0,10.95,0,21.89a14.76,14.76,0,0,0,1,5.92,8.66,8.66,0,0,0,6.7,5.26,13.55,13.55,0,0,0,7-.38,8.62,8.62,0,0,0,5.7-6.44,18.63,18.63,0,0,0,.51-4.87q0-10.69,0-21.37A7.16,7.16,0,0,1,99,29.93a7.27,7.27,0,0,1,8.1,5.39,8.64,8.64,0,0,1,.2,2c0,4,0,8,0,12Z"/><path class="cls-1" d="M298.3,42.43h-3.41a5.78,5.78,0,0,1-.17-11.56c1.17,0,2.34,0,3.58,0v-.59c0-2.24,0-4.49,0-6.73a7.23,7.23,0,0,1,6.43-7.29A7.39,7.39,0,0,1,312.8,22,8.24,8.24,0,0,1,313,23.7c0,2.36,0,4.72,0,7.17h.62c3.11,0,6.21,0,9.32,0a5.69,5.69,0,0,1,5.66,4.91,5.78,5.78,0,0,1-3.73,6.29,6.77,6.77,0,0,1-2.12.35c-3,0-6,0-9.06,0H313V43c0,6.81,0,13.63,0,20.44a15.37,15.37,0,0,0,.32,3,4.33,4.33,0,0,0,4.4,3.7,8.2,8.2,0,0,0,4.41-1.08c.91-.49,1.8-1,2.74-1.45a5.59,5.59,0,0,1,6.53,1.11,6.09,6.09,0,0,1,.88,6.88A10.79,10.79,0,0,1,328,79.72a22.64,22.64,0,0,1-8.13,2.74,24,24,0,0,1-9.81-.2c-6-1.5-9.57-5.43-11.09-11.34a24.51,24.51,0,0,1-.7-6.1q0-10.82,0-21.63Z"/><path class="cls-1" d="M157.94,44c0,10.47,0,20.94,0,31.41a7.33,7.33,0,1,1-14.66.18q0-31.62,0-63.24a7.15,7.15,0,0,1,6.29-7.07,7.22,7.22,0,0,1,8.15,5.36,9.21,9.21,0,0,1,.2,2.1Q158,28.38,157.94,44Z"/><path class="cls-1" d="M117.52,56.36q0-9.65,0-19.3a7.17,7.17,0,0,1,6.24-7.12,7.3,7.3,0,0,1,8.09,5,7.7,7.7,0,0,1,.32,2.19q0,19.25,0,38.5a7.35,7.35,0,0,1-14.49,1.59,8,8,0,0,1-.16-1.69Q117.51,65.93,117.52,56.36Z"/><path class="cls-1" d="M100.21,24.27a7.16,7.16,0,0,1-3.64-1q-6.89-4-13.79-8a.91.91,0,0,0-1.06,0q-7,4.06-14,8.07a7,7,0,0,1-10.32-4.5,6.9,6.9,0,0,1,3.2-7.52C66.55,7.86,72.46,4.42,78.42,1.06a7.53,7.53,0,0,1,7.72,0C92,4.43,97.89,7.84,103.74,11.24a7,7,0,0,1-2.5,13C100.91,24.25,100.56,24.25,100.21,24.27Z"/><path class="cls-1" d="M133.28,8.46A8.44,8.44,0,1,1,124.89,0,8.41,8.41,0,0,1,133.28,8.46Z"/><path class="cls-1" d="M114.8,98.05a2.92,2.92,0,0,1,3.91.37,3,3,0,0,1,3.17-.8,2,2,0,0,1,1.62,1.87c.1,1.41.09,2.82.08,4.24a1,1,0,0,1-1,.9.94.94,0,0,1-.93-.93c0-.93,0-1.86,0-2.79a4.56,4.56,0,0,0-.11-1,.94.94,0,0,0-.91-.78,1,1,0,0,0-1.12.63,5.07,5.07,0,0,0-.23,1.36c0,.77,0,1.55,0,2.33a1,1,0,0,1-1,1.15c-.59,0-1-.44-1-1.14,0-.9,0-1.79,0-2.69a3.89,3.89,0,0,0-.1-.87,1,1,0,0,0-1-.78,1,1,0,0,0-1.09.69,5.76,5.76,0,0,0-.21,1.42c0,.76,0,1.52,0,2.28a1,1,0,1,1-2,0c0-1.6,0-3.21,0-4.81,0-.52.12-1,.66-1.17A1,1,0,0,1,114.8,98.05Z"/><path class="cls-1" d="M127.88,104.56c0,.8,0,1.57,0,2.35s-.39,1.18-1,1.17-1-.44-1-1.16q0-4,0-7.92c0-.89.28-1.24,1.18-1.4a6.27,6.27,0,0,1,3.36.2c1.59.61,2.31,2,2.08,3.95a3.13,3.13,0,0,1-2.87,2.8A16.2,16.2,0,0,1,127.88,104.56Zm0-5.36c0,1.14,0,2.29,0,3.44a.36.36,0,0,0,.17.27,2.07,2.07,0,0,0,2.3-.68,2.49,2.49,0,0,0-.14-2.5A2.1,2.1,0,0,0,127.88,99.2Z"/><path class="cls-1" d="M154.48,102.35l1.22-3.73c0-.13.08-.26.13-.39a1.08,1.08,0,1,1,2,.74c-.36,1-.76,2-1.14,3s-.76,2.11-1.2,3.14a4.2,4.2,0,0,1-3.05,2.76,2.62,2.62,0,0,1-.46.05,1,1,0,0,1-1.09-.86c0-.55.34-.93,1-1a2.49,2.49,0,0,0,.88-.26,1,1,0,0,0,.46-1.49c-.78-1.71-1.57-3.41-2.34-5.12a1.73,1.73,0,0,1-.17-.88,1,1,0,0,1,1-.87,1.09,1.09,0,0,1,1.14.72c.36.87.7,1.76,1.05,2.64Z"/><path class="cls-1" d="M7.69,101a3.48,3.48,0,0,1,3.73-3.56,3.58,3.58,0,1,1,0,7.15A3.49,3.49,0,0,1,7.69,101Zm2,0a1.76,1.76,0,1,0,1.76-1.87A1.73,1.73,0,0,0,9.65,101Z"/><path class="cls-1" d="M107.16,97.48a3.58,3.58,0,1,1-3.71,3.58A3.49,3.49,0,0,1,107.16,97.48ZM105.41,101a1.76,1.76,0,1,0,1.76-1.87A1.73,1.73,0,0,0,105.41,101Z"/><path class="cls-1" d="M80.68,101.08A3.71,3.71,0,1,1,77,97.48,3.48,3.48,0,0,1,80.68,101.08Zm-2,0A1.71,1.71,0,0,0,77,99.16a1.9,1.9,0,0,0,0,3.79A1.71,1.71,0,0,0,78.71,101.06Z"/><path class="cls-1" d="M84.7,98.24a3.13,3.13,0,0,1,2.54-.74,2.34,2.34,0,0,1,2.23,2.25c.08,1.29.06,2.58,0,3.87a1,1,0,0,1-1,1,1,1,0,0,1-1-1c0-1,0-2,0-2.95s-.32-1.35-.94-1.46a1.46,1.46,0,0,0-1.72,1.06,4.44,4.44,0,0,0-.16,1.17c0,.71,0,1.41,0,2.12a1,1,0,0,1-1,1.08,1,1,0,0,1-1-1.1c0-1.6,0-3.21,0-4.81,0-.73.21-1.08.73-1.2S84.32,97.58,84.7,98.24Z"/><path class="cls-1" d="M19.14,98.23a3.1,3.1,0,0,1,2.81-.68,2.34,2.34,0,0,1,2,2.33c.05,1.26,0,2.52,0,3.78a1,1,0,0,1-1,1,1,1,0,0,1-1-1c0-.9,0-1.79,0-2.69a5.32,5.32,0,0,0,0-.67,1.14,1.14,0,0,0-.86-1.1,1.32,1.32,0,0,0-1.53.59,5,5,0,0,0-.42,1.62c-.07.7,0,1.41,0,2.12a1,1,0,0,1-1,1.09,1,1,0,0,1-1-1.09c0-1.57,0-3.14,0-4.71,0-.77.2-1.15.69-1.3S18.71,97.56,19.14,98.23Z"/><path class="cls-1" d="M144.39,98.24a3.09,3.09,0,0,1,2.89-.67,2.37,2.37,0,0,1,1.91,2.44c0,1.21,0,2.41,0,3.62a1,1,0,0,1-1,1,1,1,0,0,1-1-1c0-.88,0-1.76,0-2.64a6.61,6.61,0,0,0,0-.72,1.09,1.09,0,0,0-.87-1.08,1.28,1.28,0,0,0-1.49.56,4.33,4.33,0,0,0-.43,1.56c-.07.73,0,1.48,0,2.22a1,1,0,1,1-2,0c0-1.6,0-3.21,0-4.81,0-.72.22-1.1.71-1.23S144,97.56,144.39,98.24Z"/><path class="cls-1" d="M138.08,100.21c0-1-.44-1.36-1.35-1.17-.42.09-.82.25-1.23.37a.72.72,0,0,1-1-.37.77.77,0,0,1,.32-1,4.77,4.77,0,0,1,4.17-.16,2.24,2.24,0,0,1,1,2c0,1.24,0,2.48,0,3.72a1,1,0,0,1-1.59.85.79.79,0,0,0-.58-.06,3.68,3.68,0,0,1-2.38.08,2,2,0,0,1-1.38-1.87,1.72,1.72,0,0,1,1.2-1.8,13.28,13.28,0,0,1,1.89-.48C137.5,100.26,137.78,100.25,138.08,100.21Zm0,1.27c-.6.13-1.1.21-1.59.35a.6.6,0,0,0-.46.76.68.68,0,0,0,.79.52,7.49,7.49,0,0,0,1.24-.32s0-.1,0-.15C138.1,102.3,138.1,102,138.1,101.48Z"/><path class="cls-1" d="M46.1,100.15c0-.55,0-1.1,0-1.65a1,1,0,0,1,1-1,1,1,0,0,1,1,1c0,1,0,1.93,0,2.89s.46,1.46,1.28,1.51c1,.06,1.53-.42,1.56-1.48s0-1.86,0-2.79c0-.77.36-1.18,1-1.18s1,.43,1,1.19c0,1.14,0,2.28-.06,3.41a2.51,2.51,0,0,1-2.17,2.41,5,5,0,0,1-2.6-.07,2.65,2.65,0,0,1-2-2.67c0-.53,0-1.07,0-1.6Z"/><path class="cls-1" d="M27.91,104.65a13.89,13.89,0,0,1-1.4-.31,1,1,0,0,1-.66-1.36,1.18,1.18,0,0,1,.83-.33c.23,0,.47.19.72.24a4.62,4.62,0,0,0,1.16.11.61.61,0,0,0,.43-.41.65.65,0,0,0-.29-.53c-.53-.27-1.11-.46-1.65-.72A1.93,1.93,0,0,1,25.89,99a1.83,1.83,0,0,1,1.38-1.39,5,5,0,0,1,2.85,0,1.54,1.54,0,0,1,.5.26.75.75,0,0,1,.26,1,.72.72,0,0,1-.84.45c-.25,0-.5-.14-.75-.19a2.66,2.66,0,0,0-.81-.09c-.19,0-.48.2-.49.32a.69.69,0,0,0,.29.56c.53.27,1.12.44,1.66.7A1.88,1.88,0,0,1,31,103a2.27,2.27,0,0,1-1.91,1.53A11,11,0,0,1,27.91,104.65Z"/><path class="cls-1" d="M33.27,99.2c-.89-.08-1.23-.32-1.24-.82s.32-.73,1.24-.82c0-.28,0-.56,0-.85,0-.68.39-1.08,1-1.09a1,1,0,0,1,1,1.08c0,.27,0,.55,0,.89h1.27a.78.78,0,0,1,.86.77.81.81,0,0,1-.85.79H35.32c0,1.11,0,2.19,0,3.26,0,.45.44.53.83.45a2.37,2.37,0,0,0,.56-.25.77.77,0,0,1,1.07.16.85.85,0,0,1-.18,1.16,3,3,0,0,1-2.28.65,1.94,1.94,0,0,1-2-1.91c-.09-1-.05-2-.07-3C33.27,99.51,33.27,99.37,33.27,99.2Z"/><path class="cls-1" d="M63.19,99.2c-.89-.08-1.23-.31-1.24-.81s.33-.75,1.24-.81c0-.28,0-.56,0-.85,0-.68.38-1.09,1-1.1a1,1,0,0,1,1,1.07c0,.27,0,.55,0,.9h1.26a.78.78,0,0,1,.86.76.8.8,0,0,1-.85.79c-.4,0-.79,0-1.21,0,0,1.11,0,2.18,0,3.26,0,.43.46.59.93.43.21-.07.4-.19.61-.28a.63.63,0,0,1,.87.19,2.41,2.41,0,0,1,.1.91s0,.06,0,.09a2.94,2.94,0,0,1-2.86.78,1.82,1.82,0,0,1-1.55-1.59,12,12,0,0,1-.1-1.75C63.18,100.54,63.19,99.89,63.19,99.2Z"/><path class="cls-1" d="M58.68,97.35a18.11,18.11,0,0,1,1.84.6A.84.84,0,0,1,61,99.08c-.18.41-.61.55-1.15.4a5.1,5.1,0,0,0-1.35-.28A1.72,1.72,0,0,0,56.81,101a1.7,1.7,0,0,0,1.57,1.9,4.54,4.54,0,0,0,1.41-.21c.62-.17,1-.06,1.22.4s0,.9-.59,1.14a4.4,4.4,0,0,1-4.21-.3A3.58,3.58,0,0,1,58,97.52l.67-.05Z"/><path class="cls-1" d="M3.9,97.35a17.61,17.61,0,0,1,1.84.6.83.83,0,0,1,.46,1.12c-.18.41-.61.55-1.15.4a5.13,5.13,0,0,0-1.29-.29A1.74,1.74,0,0,0,2,101a1.72,1.72,0,0,0,1.62,1.91,4.8,4.8,0,0,0,1.41-.23c.57-.15,1,0,1.17.41a.85.85,0,0,1-.49,1.11,4.51,4.51,0,0,1-4.63-.51,3.5,3.5,0,0,1-.9-3.81,3.38,3.38,0,0,1,3-2.37c.22,0,.45,0,.67-.05Z"/><path class="cls-1" d="M99.59,97.35a17.94,17.94,0,0,1,1.9.59.84.84,0,0,1,.46,1.16c-.19.4-.62.52-1.16.37a4.83,4.83,0,0,0-1.3-.28A1.74,1.74,0,0,0,97.8,101a1.71,1.71,0,0,0,1.6,1.87,4.71,4.71,0,0,0,1.41-.22c.58-.15,1-.05,1.19.39a.83.83,0,0,1-.56,1.16,4.39,4.39,0,0,1-4.25-.31A3.58,3.58,0,0,1,99,97.52l.57,0Z"/><path class="cls-1" d="M41.36,98.16a2.4,2.4,0,0,1,2.67-.5,1,1,0,0,1,.75.85.86.86,0,0,1-1.16,1l-.15,0c-1.31-.52-2.06,0-2.13,1.38,0,.88,0,1.76,0,2.64a1,1,0,0,1-1,1.14c-.6,0-1-.44-1-1.14,0-1.55,0-3.11,0-4.66,0-.55,0-1.05.64-1.28S40.87,97.53,41.36,98.16Z"/><path class="cls-1" d="M69.27,101c0-.84,0-1.69,0-2.53a1,1,0,1,1,2,0q0,2.53,0,5.07a1,1,0,0,1-1,1,1,1,0,0,1-1-1C69.26,102.74,69.27,101.89,69.27,101Z"/><path class="cls-1" d="M70.26,93.44a1.13,1.13,0,0,1,0,2.26,1.13,1.13,0,1,1,0-2.26Z"/></g></g></svg>