<svg xmlns="http://www.w3.org/2000/svg" viewBox="0 0 686.77 169.66"><defs><style>.cls-1{fill:#fff;}</style></defs><title>Ресурс 1</title><g id="Слой_2" data-name="Слой 2"><g id="Слой_1-2" data-name="Слой 1"><path class="cls-1" d="M348.9,90c0-19-.11-38,.09-57a32.16,32.16,0,0,1,2.1-11.63c2-4.87,6.22-8.31,11.61-8.24,24.28.3,48.89-1.35,72.75,2.09C469.81,20.18,490.91,44.6,494,79a110.17,110.17,0,0,1-2.24,33.66c-6.56,29-29.62,49.29-60.91,52.46-21.47,2.18-43.23,1.91-64.86,1.93-10.9,0-16.84-6.78-17-18.1-.27-19.66-.08-39.33-.08-59Zm34.17,49.69c12.42-.53,24.38-.14,36.07-1.71,29.68-4,42.34-24.25,41.2-51.63-.77-18.44-7.84-33.63-26.24-41.13-16.55-6.74-33.72-4.78-51-4.5Z"/><path class="cls-1" d="M30.78,63C39.11,62.27,46,61.2,53,61.2c26.16,0,45.27,16,49.2,41.79a74.43,74.43,0,0,1-.33,24.81c-4.17,21.64-18.59,34-39.44,39-15.75,3.79-31.73,3.68-47.62.69C5.21,165.66,1.1,160.86.24,151.18c-.26-3-.22-6-.22-9q0-54,0-107.95c0-3-.11-6,.18-9C1.08,16.19,6.45,11.1,15,11c8.93-.13,15.19,5.4,15.62,14.61.41,8.64.11,17.32.12,26C30.78,55.18,30.78,58.8,30.78,63Zm.37,79.9c19.53,2.91,31.43-1.4,37.5-13,5.86-11.26,3.54-28.21-5-36.27-8.07-7.65-20.82-8.79-32.52-2.76Z"/><path class="cls-1" d="M560.82,102.49c.29-13.84-4.52-18.94-16.25-17.76-4.89.49-9.65,2.32-14.46,3.58-3.84,1-7.6,2.5-11.5,3a10,10,0,0,1-11.18-6.55c-1.83-4.64-1.17-9.34,2.66-12.87A26.7,26.7,0,0,1,517.55,67a76.7,76.7,0,0,1,46.94-4.4c18.22,3.91,27.58,16.35,27.93,36.14.31,17.64-.59,35.32.29,52.92.69,13.79-14.42,23-25.43,14.36-1-.81-2.19-1.46-3.5-2.32a61.35,61.35,0,0,1-30,5.6c-15.93-1-27.58-9.76-31.24-23.43-3.87-14.47,1.24-26.62,14.49-33.6,10.48-5.52,22-7.3,33.6-8.7C553.86,103.21,557.12,102.89,560.82,102.49Zm.77,21.83c-10-.93-19.17.43-24.4,3.21-3.71,2-6.55,4.56-6.31,9.19.27,5.08,3.53,7.91,8,8.75a38.39,38.39,0,0,0,12.64.48c9.61-1.48,10-2.29,10-12.25C561.59,130.76,561.59,127.82,561.59,124.33Z"/><path class="cls-1" d="M221,104.06c0,9,.59,18-.13,26.91-1.39,17.31-10.75,29-27.15,34.64a74.23,74.23,0,0,1-46.14.7c-18.88-5.6-29-18.71-30-40-.76-16.6-.46-33.27-.11-49.9.19-9.44,6.31-15.13,15-15.26,9.16-.13,15.42,5.69,15.73,15.62.39,12.3.11,24.62.13,36.93,0,3-.09,6,.07,9,.88,17.08,16.83,26.3,32.11,18.5,7.76-4,10.18-11.08,10.29-19.15.17-13.31.07-26.62.09-39.92a58.64,58.64,0,0,1,.18-8c1.1-7.83,7.25-13,15.18-13,8.23,0,14.35,4.72,14.9,13,.66,9.93.16,19.94.16,29.92Z"/><path class="cls-1" d="M614.74,88c-13.9-1.88-18.45-5.18-18.66-12.7-.22-7.71,3.8-10.76,18.91-13.52,0-4.92-.36-10.19.09-15.38.54-6.21,4.27-10.55,10.13-12.38s11.65-1.15,15.57,3.71c2.31,2.87,3.6,7,4.23,10.68.71,4.19.16,8.59.16,14.13,4,.2,7.49.43,11,.53,3.33.1,6.67-.14,10,.15,7,.61,11.23,4.93,11.4,11.42S673.63,86,666.83,86.89c-3.6.49-7.31.15-11,.26-3.23.1-6.46.3-10.27.49,0,15.27-.63,29.86.21,44.36.6,10.29,7.2,13.4,16.94,9.39,2.76-1.13,5.3-2.87,8.12-3.77,5.39-1.73,10.53-.08,13.44,3.86a11.82,11.82,0,0,1-.3,14.81,27.84,27.84,0,0,1-8.3,7,51.75,51.75,0,0,1-32.88,5.6c-17.05-2.7-26.91-14.09-27.8-32.59-.59-12.29-.24-24.62-.29-36.93C614.72,95.72,614.74,92.09,614.74,88Z"/><path class="cls-1" d="M326.09,89.84c0,20,.05,39.94,0,59.92,0,12.39-5.46,19.36-15,19.61-10.05.27-15.87-6.84-15.89-19.72q-.07-59.42,0-118.83a40.17,40.17,0,0,1,.45-8c1.51-7.37,7.42-11.9,15.09-11.9s13.47,4.42,14.9,12a49.16,49.16,0,0,1,.45,8.95Q326.12,60.88,326.09,89.84Z"/><path class="cls-1" d="M242.51,114.61c0-12.33.46-24.68-.15-37-.48-9.46,6.52-16.51,14.77-16.51,9.58,0,15.68,6,15.75,16.61.17,25-.28,50,.2,75,.23,12.28-12.4,20-21.87,15.27-6-3-8.81-7.63-8.73-14.37C242.61,140.6,242.51,127.6,242.51,114.61Z"/><path class="cls-1" d="M169.73,30.93,146.34,44.14c-2.32,1.31-4.58,2.75-7,3.83-7.68,3.45-15.24,1.23-19.07-5.46s-2-14.63,5.13-19.07C135.87,17,146.72,11.13,157.4,5c1.15-.66,2.3-1.34,3.47-2a17.72,17.72,0,0,1,18.09.2c11.29,6.4,22.66,12.67,33.79,19.33,8.18,4.89,10.49,12.26,6.75,19.41-3.94,7.5-12.14,9.86-20.61,5.37C189.21,42.22,179.77,36.61,169.73,30.93Z"/><path class="cls-1" d="M257.27,0A17.69,17.69,0,0,1,275,16.73,17.48,17.48,0,1,1,257.27,0Z"/></g></g></svg>