<svg xmlns="http://www.w3.org/2000/svg" width="92" height="57" viewBox="0 0 92 57">
  <defs>
    <style>
      .cls-1 {
        fill: #b6c7d3;
        fill-rule: evenodd;
      }
    </style>
  </defs>
  <path id="_" data-name="’’" class="cls-1" d="M854.615,5561.16a4.7,4.7,0,0,0,5.02,4.83c9.037,0,30.123-12.89,30.123-34.64,0-13.5-7.23-22.36-19.279-22.36-11.245,0-16.467,7.45-16.467,15.31,0,13.7,12.25,11.88,12.25,19.74C866.262,5552.9,854.615,5554.51,854.615,5561.16Zm56.229,0a4.7,4.7,0,0,0,5.02,4.83c9.037,0,30.122-12.89,30.122-34.64,0-13.5-7.229-22.36-19.278-22.36-11.245,0-16.467,7.45-16.467,15.31,0,13.7,12.25,11.88,12.25,19.74C922.491,5552.9,910.844,5554.51,910.844,5561.16Z" transform="translate(-854 -5509)"/>
</svg>
